<?xml version="1.0" encoding="UTF-8" standalone="no"?>
<!-- Created with Inkscape (http://www.inkscape.org/) -->

<svg
   width="125"
   height="12"
   viewBox="0 0 33.072917 3.1749999"
   version="1.1"
   id="svg5"
   inkscape:version="1.1.2 (0a00cf5339, 2022-02-04)"
   sodipodi:docname="currentSituation.svg"
   xmlns:inkscape="http://www.inkscape.org/namespaces/inkscape"
   xmlns:sodipodi="http://sodipodi.sourceforge.net/DTD/sodipodi-0.dtd"
   xmlns="http://www.w3.org/2000/svg"
   xmlns:svg="http://www.w3.org/2000/svg">
  <sodipodi:namedview
     id="namedview7"
     pagecolor="#ffffff"
     bordercolor="#666666"
     borderopacity="1.0"
     inkscape:pageshadow="2"
     inkscape:pageopacity="0.0"
     inkscape:pagecheckerboard="0"
     inkscape:document-units="mm"
     showgrid="false"
     inkscape:snap-global="false"
     inkscape:snap-bbox="true"
     inkscape:snap-smooth-nodes="true"
     inkscape:snap-midpoints="true"
     inkscape:snap-intersection-paths="true"
     inkscape:object-paths="true"
     inkscape:snap-bbox-midpoints="true"
     inkscape:snap-bbox-edge-midpoints="true"
     inkscape:bbox-nodes="true"
     inkscape:bbox-paths="true"
     inkscape:zoom="11.854923"
     inkscape:cx="61.957385"
     inkscape:cy="-4.1754807"
     inkscape:window-width="2502"
     inkscape:window-height="1382"
     inkscape:window-x="1949"
     inkscape:window-y="29"
     inkscape:window-maximized="1"
     inkscape:current-layer="layer1"
     fit-margin-top="0"
     fit-margin-left="1.5"
     fit-margin-right="1.5"
     fit-margin-bottom="0"
     units="px" />
  <defs
     id="defs2" />
  <g
     inkscape:groupmode="layer"
     id="layer1"
     inkscape:label="Layer 1"
     transform="translate(-36.681685,-22.047146)">
    <path
       d="m 41.04731,22.047146 h -2.645833 l -1.322917,1.5875 v 0.79375 h 0.529167 a 0.79375,0.79375 0 0 0 0.79375,0.79375 0.79375,0.79375 0 0 0 0.79375,-0.79375 h 1.5875 a 0.79375,0.79375 0 0 0 0.79375,0.79375 0.79375,0.79375 0 0 0 0.79375,-0.79375 h 0.529167 v -0.79375 c 0,-0.293687 -0.23548,-0.529167 -0.529167,-0.529167 H 41.84106 l -0.79375,-1.058333 m -2.513541,0.396875 h 1.058333 v 0.661458 h -1.5875 l 0.529167,-0.661458 m 1.455208,0 h 0.926042 l 0.518583,0.661458 h -1.444625 v -0.661458 m -1.5875,1.5875 a 0.396875,0.396875 0 0 1 0.396875,0.396875 0.396875,0.396875 0 0 1 -0.396875,0.396875 0.396875,0.396875 0 0 1 -0.396875,-0.396875 0.396875,0.396875 0 0 1 0.396875,-0.396875 m 3.175,0 a 0.396875,0.396875 0 0 1 0.396875,0.396875 0.396875,0.396875 0 0 1 -0.396875,0.396875 0.396875,0.396875 0 0 1 -0.396875,-0.396875 0.396875,0.396875 0 0 1 0.396875,-0.396875 z"
       id="path16643"
       style="display:inline;fill:#d30000;fill-opacity:1;stroke-width:0.264583" />
    <path
       d="M 47.661893,22.047146 H 45.01606 l -1.322917,1.5875 v 0.79375 h 0.529167 a 0.79375,0.79375 0 0 0 0.79375,0.79375 0.79375,0.79375 0 0 0 0.79375,-0.79375 h 1.5875 a 0.79375,0.79375 0 0 0 0.79375,0.79375 0.79375,0.79375 0 0 0 0.79375,-0.79375 h 0.529167 v -0.79375 c 0,-0.293687 -0.23548,-0.529167 -0.529167,-0.529167 h -0.529167 l -0.79375,-1.058333 m -2.513541,0.396875 h 1.058333 v 0.661458 h -1.5875 l 0.529167,-0.661458 m 1.455208,0 h 0.926042 l 0.518583,0.661458 H 46.60356 v -0.661458 m -1.5875,1.5875 a 0.396875,0.396875 0 0 1 0.396875,0.396875 0.396875,0.396875 0 0 1 -0.396875,0.396875 0.396875,0.396875 0 0 1 -0.396875,-0.396875 0.396875,0.396875 0 0 1 0.396875,-0.396875 m 3.175,0 a 0.396875,0.396875 0 0 1 0.396875,0.396875 0.396875,0.396875 0 0 1 -0.396875,0.396875 0.396875,0.396875 0 0 1 -0.396875,-0.396875 0.396875,0.396875 0 0 1 0.396875,-0.396875 z"
       id="path915"
       style="display:inline;fill:#d3b000;fill-opacity:1;stroke-width:0.264583" />
    <path
       d="m 54.276476,22.047146 h -2.645833 l -1.322917,1.5875 v 0.79375 h 0.529167 a 0.79375,0.79375 0 0 0 0.79375,0.79375 0.79375,0.79375 0 0 0 0.79375,-0.79375 h 1.5875 a 0.79375,0.79375 0 0 0 0.79375,0.79375 0.79375,0.79375 0 0 0 0.79375,-0.79375 h 0.529167 v -0.79375 c 0,-0.293687 -0.23548,-0.529167 -0.529167,-0.529167 h -0.529167 l -0.79375,-1.058333 m -2.513541,0.396875 h 1.058333 v 0.661458 h -1.5875 l 0.529167,-0.661458 m 1.455208,0 h 0.926042 l 0.518583,0.661458 h -1.444625 v -0.661458 m -1.5875,1.5875 a 0.396875,0.396875 0 0 1 0.396875,0.396875 0.396875,0.396875 0 0 1 -0.396875,0.396875 0.396875,0.396875 0 0 1 -0.396875,-0.396875 0.396875,0.396875 0 0 1 0.396875,-0.396875 m 3.175,0 a 0.396875,0.396875 0 0 1 0.396875,0.396875 0.396875,0.396875 0 0 1 -0.396875,0.396875 0.396875,0.396875 0 0 1 -0.396875,-0.396875 0.396875,0.396875 0 0 1 0.396875,-0.396875 z"
       id="path917"
       style="display:inline;fill:#9bd300;fill-opacity:1;stroke-width:0.264583" />
    <path
       d="m 60.891059,22.047146 h -2.645833 l -1.322917,1.5875 v 0.79375 h 0.529167 a 0.79375,0.79375 0 0 0 0.79375,0.79375 0.79375,0.79375 0 0 0 0.79375,-0.79375 h 1.5875 a 0.79375,0.79375 0 0 0 0.79375,0.79375 0.79375,0.79375 0 0 0 0.79375,-0.79375 h 0.529167 v -0.79375 c 0,-0.293687 -0.23548,-0.529167 -0.529167,-0.529167 h -0.529167 l -0.79375,-1.058333 m -2.513541,0.396875 h 1.058333 v 0.661458 h -1.5875 l 0.529167,-0.661458 m 1.455208,0 h 0.926042 l 0.518583,0.661458 h -1.444625 v -0.661458 m -1.5875,1.5875 a 0.396875,0.396875 0 0 1 0.396875,0.396875 0.396875,0.396875 0 0 1 -0.396875,0.396875 0.396875,0.396875 0 0 1 -0.396875,-0.396875 0.396875,0.396875 0 0 1 0.396875,-0.396875 m 3.175,0 a 0.396875,0.396875 0 0 1 0.396875,0.396875 0.396875,0.396875 0 0 1 -0.396875,0.396875 0.396875,0.396875 0 0 1 -0.396875,-0.396875 0.396875,0.396875 0 0 1 0.396875,-0.396875 z"
       id="path919"
       style="display:inline;fill:#3fd300;fill-opacity:1;stroke-width:0.264583" />
    <path
       d="m 67.505642,22.047146 h -2.645833 l -1.322917,1.5875 v 0.79375 h 0.529167 a 0.79375,0.79375 0 0 0 0.79375,0.79375 0.79375,0.79375 0 0 0 0.79375,-0.79375 h 1.5875 a 0.79375,0.79375 0 0 0 0.79375,0.79375 0.79375,0.79375 0 0 0 0.79375,-0.79375 h 0.529167 v -0.79375 c 0,-0.293687 -0.23548,-0.529167 -0.529167,-0.529167 h -0.529167 l -0.79375,-1.058333 m -2.513541,0.396875 h 1.058333 v 0.661458 h -1.5875 l 0.529167,-0.661458 m 1.455208,0 h 0.926042 l 0.518583,0.661458 h -1.444625 v -0.661458 m -1.5875,1.5875 a 0.396875,0.396875 0 0 1 0.396875,0.396875 0.396875,0.396875 0 0 1 -0.396875,0.396875 0.396875,0.396875 0 0 1 -0.396875,-0.396875 0.396875,0.396875 0 0 1 0.396875,-0.396875 m 3.175,0 a 0.396875,0.396875 0 0 1 0.396875,0.396875 0.396875,0.396875 0 0 1 -0.396875,0.396875 0.396875,0.396875 0 0 1 -0.396875,-0.396875 0.396875,0.396875 0 0 1 0.396875,-0.396875 z"
       id="path921"
       style="display:inline;fill:#00d31b;fill-opacity:1;stroke-width:0.264583" />
  </g>
</svg>
